<svg viewBox="0 0 180 180" xmlns="http://www.w3.org/2000/svg">
  <defs>
    <linearGradient id="gradientFill" x1="0%" y1="0%" x2="100%" y2="100%">
      <stop offset="0%" stop-color="#9333EA" />
      <stop offset="50%" stop-color="#4338CA" />
      <stop offset="100%" stop-color="#DB2777" />
    </linearGradient>
    
    <!-- Definimos unha máscara para crear o buraco no medio e as liñas transparentes -->
    <mask id="hexHole">
      <!-- Todo en branco será visible, todo en negro será transparente -->
      <rect width="100%" height="100%" fill="white"/>
      
      <!-- Hexágono central que será transparente -->
      <path fill="black" d="M90,45 L50,65 L50,115 L90,135 L130,115 L130,65 Z" />
      
      <!-- Liñas de conexión que serán transparentes -->
      <line x1="90" y1="25" x2="90" y2="45" stroke="black" stroke-width="4" />
      <line x1="30" y1="55" x2="50" y2="65" stroke="black" stroke-width="4" />
      <line x1="150" y1="55" x2="130" y2="65" stroke="black" stroke-width="4" />
      <line x1="30" y1="125" x2="50" y2="115" stroke="black" stroke-width="4" />
      <line x1="150" y1="125" x2="130" y2="115" stroke="black" stroke-width="4" />
      <line x1="90" y1="155" x2="90" y2="135" stroke="black" stroke-width="4" />
    </mask>
  </defs>
  
  <!-- Forma principal co buraco no medio e liñas transparentes usando a máscara -->
  <path fill="url(#gradientFill)" d="M90,25 L30,55 L30,125 L90,155 L150,125 L150,55 Z" mask="url(#hexHole)" />
  
  <!-- Contorno do hexágono interior -->
  <path fill="none" stroke="#1C1A24" stroke-width="3" d="M90,45 L50,65 L50,115 L90,135 L130,115 L130,65 Z" />
  
  <!-- Punto central -->
  <circle cx="90" cy="90" r="8" fill="black" />
  <circle cx="90" cy="90" r="4" fill="black" opacity="0.5" />
</svg>